<svg width="303" height="83" viewBox="0 0 303 83" fill="none" xmlns="http://www.w3.org/2000/svg">
<path d="M131.6 65.2652C131.6 65.2852 131.6 65.3052 131.6 65.3152L127.59 72.2652L123.58 65.3152C123.58 65.2952 123.58 65.2852 123.58 65.2652C123.58 65.2452 123.58 65.2252 123.58 65.2152L127.59 58.2652L131.6 65.2152C131.6 65.2252 131.6 65.2452 131.6 65.2652ZM137.73 65.2652C137.73 64.2252 137.5 63.1852 137.05 62.3852L129.26 48.8852C128.35 47.3052 126.85 47.3052 125.94 48.8852L118.15 62.3852C117.69 63.1752 117.47 64.2152 117.47 65.2652C117.47 66.3152 117.7 67.3452 118.15 68.1452L125.94 81.6452C126.85 83.2252 128.35 83.2252 129.26 81.6452L137.05 68.1452C137.5 67.3452 137.73 66.3052 137.73 65.2652Z" fill="#CFB675"/>
<path d="M131.6 17.565C131.6 17.585 131.6 17.605 131.6 17.615L127.59 24.565L123.58 17.615C123.58 17.595 123.58 17.585 123.58 17.565C123.58 17.545 123.58 17.525 123.58 17.515L127.59 10.565L131.6 17.515C131.6 17.525 131.6 17.545 131.6 17.565ZM137.73 17.565C137.73 16.525 137.5 15.475 137.05 14.685L129.26 1.185C128.35 -0.395 126.85 -0.395 125.94 1.185L118.15 14.685C117.69 15.475 117.47 16.515 117.47 17.565C117.47 18.605 117.7 19.645 118.15 20.445L125.94 33.945C126.85 35.525 128.35 35.525 129.26 33.945L137.05 20.445C137.5 19.645 137.73 18.605 137.73 17.565Z" fill="#CFB675"/>
<path d="M154.31 25.9852L150.3 32.9352C150.27 32.9552 150.24 32.9752 150.21 32.9852H142.18L146.19 26.0352C146.22 26.0152 146.25 25.9952 146.28 25.9852H154.31ZM163.64 21.4652C163.64 20.5252 162.89 19.8652 161.59 19.8652H146.01C144.18 19.8652 141.94 21.1552 141.03 22.7452L133.24 36.2352C132.98 36.6952 132.85 37.1252 132.85 37.5152C132.85 38.4652 133.6 39.1152 134.9 39.1152H150.48C152.31 39.1152 154.55 37.8252 155.46 36.2352L163.25 22.7352C163.52 22.2752 163.64 21.8452 163.64 21.4652Z" fill="#CFB675"/>
<path d="M113 49.8348L108.99 56.7848C108.96 56.8048 108.93 56.8248 108.9 56.8348H100.87L104.88 49.8848C104.91 49.8648 104.94 49.8448 104.97 49.8348H113ZM122.33 45.3148C122.33 44.3748 121.58 43.7148 120.28 43.7148H104.7C102.87 43.7148 100.63 45.0048 99.72 46.5948L91.93 60.0848C91.67 60.5448 91.54 60.9748 91.54 61.3648C91.54 62.3148 92.29 62.9648 93.59 62.9648H109.17C111 62.9648 113.24 61.6748 114.15 60.0848L121.94 46.5848C122.21 46.1348 122.33 45.6948 122.33 45.3148Z" fill="#CFB675"/>
<path d="M113 32.9855H104.98C104.95 32.9655 104.92 32.9555 104.89 32.9355L100.88 25.9855H108.91C108.94 26.0055 108.97 26.0155 109 26.0355L113 32.9855ZM122.33 37.5155C122.33 37.1255 122.2 36.6955 121.94 36.2355L114.15 22.7355C113.24 21.1555 111 19.8555 109.17 19.8555H93.59C92.29 19.8555 91.54 20.5055 91.54 21.4555C91.54 21.8455 91.67 22.2755 91.93 22.7355L99.72 36.2255C100.63 37.8055 102.87 39.1055 104.7 39.1055H120.28C121.58 39.1155 122.33 38.4555 122.33 37.5155Z" fill="#CFB675"/>
<path d="M154.31 56.8351H146.29C146.26 56.8151 146.23 56.8051 146.2 56.7851L142.19 49.8351H150.22C150.25 49.8551 150.28 49.8651 150.31 49.8851L154.31 56.8351ZM163.64 61.3651C163.64 60.9751 163.51 60.5451 163.25 60.0851L155.46 46.5851C154.55 45.0051 152.31 43.7051 150.48 43.7051H134.9C133.6 43.7051 132.85 44.3551 132.85 45.3051C132.85 45.6951 132.98 46.1251 133.24 46.5851L141.03 60.0751C141.94 61.6551 144.18 62.9451 146.01 62.9551H161.59C162.89 62.9651 163.64 62.3051 163.64 61.3651Z" fill="#CFB675"/>
<path d="M7.36 62.1654C4.26 61.2254 1.81 59.9654 0 58.4054L2.77 52.1854C4.53 53.5854 6.7 54.7253 9.27 55.6054C11.84 56.4953 14.41 56.9354 17 56.9354C20.2 56.9354 22.59 56.4254 24.18 55.3954C25.76 54.3654 26.55 53.0154 26.55 51.3254C26.55 50.0954 26.11 49.0754 25.23 48.2754C24.35 47.4754 23.23 46.8454 21.87 46.3954C20.52 45.9454 18.67 45.4254 16.33 44.8554C13.04 44.0753 10.39 43.2954 8.35 42.5154C6.32 41.7353 4.57 40.5154 3.11 38.8454C1.65 37.1854 0.919998 34.9354 0.919998 32.1054C0.919998 29.7254 1.56 27.5554 2.86 25.6054C4.15 23.6554 6.1 22.1054 8.71 20.9554C11.32 19.8054 14.51 19.2354 18.29 19.2354C20.92 19.2354 23.51 19.5654 26.05 20.2254C28.6 20.8854 30.79 21.8254 32.64 23.0554L30.11 29.2754C28.22 28.1654 26.25 27.3254 24.2 26.7454C22.15 26.1754 20.15 25.8854 18.23 25.8854C15.07 25.8854 12.72 26.4154 11.18 27.4854C9.64 28.5554 8.87 29.9754 8.87 31.7354C8.87 32.9654 9.31 33.9754 10.2 34.7554C11.08 35.5354 12.2 36.1553 13.55 36.6054C14.91 37.0554 16.75 37.5754 19.09 38.1454C22.29 38.8854 24.92 39.6554 26.97 40.4554C29.03 41.2554 30.78 42.4754 32.24 44.1254C33.7 45.7654 34.43 47.9854 34.43 50.7754C34.43 53.1554 33.78 55.3154 32.49 57.2454C31.2 59.1754 29.24 60.7154 26.61 61.8654C23.98 63.0154 20.78 63.5854 17 63.5854C13.67 63.5854 10.46 63.1154 7.36 62.1654Z" fill="#414141"/>
<path d="M75.4102 21.7055C78.1802 22.9355 80.3101 24.7055 81.7901 27.0055C83.2701 29.3055 84.0101 32.0355 84.0101 35.1955C84.0101 38.3155 83.2701 41.0355 81.7901 43.3555C80.3101 45.6755 78.1902 47.4555 75.4102 48.6855C72.6402 49.9155 69.3901 50.5355 65.6501 50.5355H55.9202V62.9755H47.9102V19.8555H65.6501C69.3901 19.8555 72.6402 20.4755 75.4102 21.7055ZM73.2301 41.5355C75.0401 40.0555 75.9402 37.9455 75.9402 35.1855C75.9402 32.4355 75.0401 30.3155 73.2301 28.8455C71.4201 27.3655 68.7802 26.6255 65.2802 26.6255H55.9202V43.7455H65.2802C68.7802 43.7555 71.4201 43.0155 73.2301 41.5355Z" fill="#414141"/>
<path d="M202.69 62.9655L193.89 50.3355C193.52 50.3755 192.96 50.3955 192.23 50.3955H182.5V62.9555H174.49V19.8555H192.23C195.97 19.8555 199.22 20.4655 201.99 21.7055C204.76 22.9355 206.89 24.7055 208.37 27.0055C209.85 29.3055 210.59 32.0355 210.59 35.1955C210.59 38.4355 209.8 41.2355 208.22 43.5755C206.64 45.9155 204.37 47.6655 201.41 48.8155L211.33 62.9755H202.69V62.9655ZM199.79 28.8455C197.98 27.3655 195.34 26.6255 191.84 26.6255H182.48V43.8155H191.84C195.33 43.8155 197.98 43.0655 199.79 41.5655C201.6 40.0655 202.5 37.9455 202.5 35.1855C202.5 32.4455 201.6 30.3255 199.79 28.8455Z" fill="#414141"/>
<path d="M257.38 56.2555V62.9655H225.05V19.8555H256.52V26.5655H233.06V37.7755H253.88V44.3655H233.06V56.2555H257.38Z" fill="#414141"/>
<path d="M275.97 62.1151C272.88 61.1751 270.43 59.9251 268.63 58.3651L271.4 52.1551C273.16 53.5451 275.32 54.6851 277.88 55.5651C280.44 56.4451 283.01 56.8851 285.59 56.8851C288.79 56.8851 291.17 56.3651 292.75 55.3451C294.33 54.3151 295.12 52.9651 295.12 51.2851C295.12 50.0551 294.68 49.0351 293.8 48.2351C292.92 47.4351 291.8 46.8151 290.45 46.3651C289.1 45.9051 287.25 45.3951 284.92 44.8251C281.64 44.0451 278.99 43.2651 276.96 42.4851C274.93 41.7051 273.19 40.4851 271.74 38.8251C270.28 37.1651 269.56 34.9251 269.56 32.0951C269.56 29.7151 270.21 27.5551 271.5 25.6051C272.79 23.6551 274.74 22.1151 277.34 20.9651C279.94 19.8151 283.13 19.2451 286.89 19.2451C289.51 19.2451 292.09 19.5751 294.63 20.2251C297.17 20.8851 299.36 21.8251 301.2 23.0551L298.68 29.2651C296.79 28.1551 294.83 27.3151 292.78 26.7451C290.73 26.1651 288.74 25.8851 286.82 25.8851C283.66 25.8851 281.32 26.4151 279.78 27.4851C278.24 28.5551 277.47 29.9651 277.47 31.7251C277.47 32.9551 277.91 33.9651 278.79 34.7351C279.67 35.5151 280.79 36.1351 282.14 36.5851C283.49 37.0351 285.34 37.5451 287.67 38.1251C290.87 38.8651 293.49 39.6351 295.53 40.4351C297.58 41.2351 299.33 42.4551 300.79 44.0951C302.24 45.7351 302.97 47.9451 302.97 50.7351C302.97 53.1151 302.32 55.2651 301.03 57.1851C299.74 59.1151 297.78 60.6551 295.16 61.7951C292.54 62.9451 289.34 63.5151 285.57 63.5151C282.27 63.5351 279.06 63.0651 275.97 62.1151Z" fill="#414141"/>
</svg>
